<svg height="20" version="1.1" viewBox="0 0 20 20" width="20" xmlns="http://www.w3.org/2000/svg"
     enable-background="new 0 0 256 256">
    <defs/>
    <path d="M1.05634 0.187793C0.790297 0.312989 0.57903 0.469484 0.422535 0.657277C0.266041 0.84507 0.156495 1.02504 0.0938967 1.19718C0.0312989 1.36933 0 3.24726 0 6.83099C0 10.4147 0.0469484 12.3161 0.140845 12.5352C0.234742 12.7543 0.359937 12.9421 0.516432 13.0986C0.672926 13.2551 0.84507 13.3803 1.03286 13.4742C1.22066 13.5681 1.43975 13.6228 1.69014 13.6385C1.81534 13.6463 1.94053 13.6541 2.06573 13.662C2.06573 12.1674 2.06573 10.6729 2.06573 9.1784C2.06573 6.18936 2.11268 4.53052 2.20657 4.20188C2.30047 3.87324 2.40219 3.62285 2.51174 3.4507C2.62128 3.27856 2.83255 3.05947 3.14554 2.79343C3.45853 2.52739 3.79499 2.33959 4.15493 2.23005C4.51487 2.1205 6.18936 2.06573 9.1784 2.06573C10.6729 2.06573 12.1674 2.06573 13.662 2.06573C13.662 1.97966 13.662 1.89358 13.662 1.80751C13.662 1.63537 13.6463 1.4867 13.615 1.3615C13.5837 1.23631 13.4977 1.06416 13.3568 0.84507C13.216 0.625978 13.0986 0.477308 13.0047 0.399061C12.9108 0.320814 12.7465 0.234742 12.5117 0.140845C12.277 0.0469484 10.3756 0 6.80751 0C3.23944 0 1.32238 0.0625978 1.05634 0.187793ZM4.55399 3.21596C4.3662 3.26291 4.1784 3.34898 3.99061 3.47418C3.80282 3.59937 3.6385 3.76369 3.49765 3.96714C3.35681 4.17058 3.26291 4.3662 3.21596 4.55399C3.16901 4.74178 3.14554 6.55712 3.14554 10C3.14554 13.4429 3.16901 15.2582 3.21596 15.446C3.26291 15.6338 3.35681 15.8294 3.49765 16.0329C3.6385 16.2363 3.80282 16.4006 3.99061 16.5258C4.1784 16.651 4.42879 16.7371 4.74178 16.784C4.89828 16.8075 5.05477 16.831 5.21127 16.8545C5.21909 15.3365 5.22692 13.8185 5.23474 12.3005C5.25039 9.26448 5.29734 7.61346 5.37559 7.34742C5.45383 7.08138 5.55556 6.84664 5.68075 6.64319C5.80595 6.43975 6.01721 6.21283 6.31455 5.96244C6.61189 5.71205 6.92488 5.53208 7.25352 5.42254C7.58216 5.31299 9.26448 5.25822 12.3005 5.25822C13.8185 5.25822 15.3365 5.25822 16.8545 5.25822C16.8545 5.18779 16.8545 5.11737 16.8545 5.04695C16.8545 4.9061 16.831 4.74178 16.784 4.55399C16.7371 4.3662 16.651 4.1784 16.5258 3.99061C16.4006 3.80282 16.2363 3.6385 16.0329 3.49765C15.8294 3.35681 15.6338 3.26291 15.446 3.21596C15.2582 3.16901 13.4429 3.14554 10 3.14554C6.55712 3.14554 4.74178 3.16901 4.55399 3.21596ZM7.46479 6.52582C7.1831 6.65102 6.97966 6.77621 6.85446 6.90141C6.72926 7.0266 6.61189 7.22222 6.50235 7.48826C6.3928 7.7543 6.33803 9.64006 6.33803 13.1455C6.33803 16.651 6.40845 18.5524 6.5493 18.8498C6.69014 19.1471 6.84664 19.374 7.01878 19.5305C7.19092 19.687 7.37089 19.8044 7.55869 19.8826C7.74648 19.9609 9.62441 20 13.1925 20C16.7606 20 18.6776 19.9374 18.9437 19.8122C19.2097 19.687 19.421 19.5305 19.5775 19.3427C19.734 19.1549 19.8435 18.975 19.9061 18.8028C19.9687 18.6307 20 16.7684 20 13.216C20 9.66354 19.9296 7.74648 19.7887 7.46479C19.6479 7.1831 19.4757 6.95618 19.2723 6.78404C19.0689 6.61189 18.8732 6.49452 18.6854 6.43192C18.4977 6.36933 16.651 6.33803 13.1455 6.33803C9.64006 6.33803 7.74648 6.40063 7.46479 6.52582Z"
          fill="#A7A9AC"/>
</svg>
